<mxfile host="app.diagrams.net" modified="2022-05-05T08:29:15.031Z" agent="5.0 (Windows NT 10.0; Win64; x64) AppleWebKit/537.36 (KHTML, like Gecko) Chrome/101.0.4951.54 Safari/537.36" etag="5Mg9lpU7PS3gd8fYH6VD" version="17.5.1" type="github">
  <diagram id="7HQYNC31aHsgBr6-6DPW" name="Page-1">
    <mxGraphModel dx="1422" dy="762" grid="1" gridSize="10" guides="1" tooltips="1" connect="1" arrows="1" fold="1" page="1" pageScale="1" pageWidth="827" pageHeight="1169" math="0" shadow="0">
      <root>
        <mxCell id="0" />
        <mxCell id="1" parent="0" />
        <mxCell id="v6Sz__jcGQsvWJIk5j0P-2" value="1&lt;br&gt;def a" style="ellipse;whiteSpace=wrap;html=1;" parent="1" vertex="1">
          <mxGeometry x="150" y="60" width="60" height="60" as="geometry" />
        </mxCell>
        <mxCell id="v6Sz__jcGQsvWJIk5j0P-4" value="4&lt;br&gt;use a" style="ellipse;whiteSpace=wrap;html=1;" parent="1" vertex="1">
          <mxGeometry x="520" y="60" width="60" height="60" as="geometry" />
        </mxCell>
        <mxCell id="v6Sz__jcGQsvWJIk5j0P-9" value="" style="endArrow=classic;html=1;rounded=0;" parent="1" source="kXJHUOvyInJfqK0Md_yd-5" target="kXJHUOvyInJfqK0Md_yd-1" edge="1">
          <mxGeometry width="50" height="50" relative="1" as="geometry">
            <mxPoint x="150" y="400" as="sourcePoint" />
            <mxPoint x="200" y="350" as="targetPoint" />
          </mxGeometry>
        </mxCell>
        <mxCell id="kXJHUOvyInJfqK0Md_yd-1" value="3&lt;br&gt;def a" style="ellipse;whiteSpace=wrap;html=1;" parent="1" vertex="1">
          <mxGeometry x="400" y="60" width="60" height="60" as="geometry" />
        </mxCell>
        <mxCell id="kXJHUOvyInJfqK0Md_yd-2" value="" style="endArrow=classic;html=1;rounded=0;" parent="1" source="kXJHUOvyInJfqK0Md_yd-1" target="v6Sz__jcGQsvWJIk5j0P-4" edge="1">
          <mxGeometry width="50" height="50" relative="1" as="geometry">
            <mxPoint x="210" y="230" as="sourcePoint" />
            <mxPoint x="370" y="230" as="targetPoint" />
          </mxGeometry>
        </mxCell>
        <mxCell id="kXJHUOvyInJfqK0Md_yd-4" value="" style="endArrow=classic;html=1;rounded=0;" parent="1" source="v6Sz__jcGQsvWJIk5j0P-2" target="kXJHUOvyInJfqK0Md_yd-5" edge="1">
          <mxGeometry width="50" height="50" relative="1" as="geometry">
            <mxPoint x="240" y="120" as="sourcePoint" />
            <mxPoint x="400" y="120" as="targetPoint" />
          </mxGeometry>
        </mxCell>
        <mxCell id="kXJHUOvyInJfqK0Md_yd-5" value="2&lt;br&gt;use a" style="ellipse;whiteSpace=wrap;html=1;" parent="1" vertex="1">
          <mxGeometry x="270" y="60" width="60" height="60" as="geometry" />
        </mxCell>
        <mxCell id="Y-98zVoJndV_8OrWqv0u-1" value="1&lt;br&gt;use a" style="ellipse;whiteSpace=wrap;html=1;" vertex="1" parent="1">
          <mxGeometry x="210" y="150" width="60" height="60" as="geometry" />
        </mxCell>
        <mxCell id="Y-98zVoJndV_8OrWqv0u-2" value="" style="endArrow=classic;html=1;rounded=0;" edge="1" parent="1" source="kXJHUOvyInJfqK0Md_yd-5" target="Y-98zVoJndV_8OrWqv0u-1">
          <mxGeometry width="50" height="50" relative="1" as="geometry">
            <mxPoint x="340" y="100" as="sourcePoint" />
            <mxPoint x="410" y="100" as="targetPoint" />
          </mxGeometry>
        </mxCell>
        <mxCell id="Y-98zVoJndV_8OrWqv0u-3" value="" style="endArrow=classic;html=1;rounded=0;" edge="1" parent="1" source="Y-98zVoJndV_8OrWqv0u-1" target="v6Sz__jcGQsvWJIk5j0P-2">
          <mxGeometry width="50" height="50" relative="1" as="geometry">
            <mxPoint x="350" y="110" as="sourcePoint" />
            <mxPoint x="420" y="110" as="targetPoint" />
          </mxGeometry>
        </mxCell>
      </root>
    </mxGraphModel>
  </diagram>
</mxfile>
